<svg clip-rule="evenodd" fill-rule="evenodd" stroke-linejoin="round" stroke-miterlimit="2" viewBox="0 0 40 40"
     xmlns="http://www.w3.org/2000/svg">
    <linearGradient id="a" gradientUnits="userSpaceOnUse" x1="0" x2="40" y1="20" y2="20">
        <stop offset="0" stop-color="#9100ff"/>
        <stop offset="1" stop-color="#ff00b9"/>
    </linearGradient>
    <linearGradient id="b" gradientTransform="matrix(35.7556 12.7003 -12.7003 35.7556 5.13586 2.6767)"
                    gradientUnits="userSpaceOnUse" x1="0" x2="1" y1="0" y2="0">
        <stop offset="0" stop-color="#9100ff"/>
        <stop offset=".51" stop-color="#e200cb"/>
        <stop offset="1" stop-color="#ff00b9"/>
    </linearGradient>
    <clipPath id="c">
        <path clip-rule="evenodd" d="m0 0h40v40h-40z"/>
    </clipPath>
    <path d="m0 0h40v40h-40z" fill="none"/>
    <g clip-path="url(#c)">
        <path d="m37.68 26.533c0 .457.066.676-.126 1.047l-.029.052c-.02.036-.011.022-.029.051-.112.18-.334.378-.533.453-.036.014-.073.022-.12.04-.426.159-2.163.064-2.763.064h-7.92l.11.61c.009.071.028.108.047.166.044.133.022.232.073.38.046.132.035.261.063.397.055.067.048.151.054.234.011.168.028.069.065.227.024.1.003.171.029.265.056.194.041.231.075.379.017.075-.004-.01.02.059l.015.038c.032.096.023.145.037.257.016.127.036.074.065.229l.326 1.727c.026.131.047.114.06.233l.085.502c.011.095.046.136.065.228.022.105-.002.164.029.264.074.232.045.295.112.475.045.122.016.127.033.26.012.09.057.134.071.223.02.128-.007.145.032.261.032.096.044.116.053.24.012.166.018.112.055.238.029.096.013.153.033.261.012.058.056.146.066.227l.167 1.007h1.04c.355 0 .614-.024.915.151l.052.028c.18.1.314.262.418.435l.096.224c.092.218.054.56-.023.78-.115.328-.376.593-.706.707l-.057.023c-.031.011-.168.019-.374.025h-4.902c-.068-.008-.129-.021-.179-.04l-.179-.087c-.134-.07-.216-.137-.311-.25-.265-.312-.319-.559-.298-.984.007-.14.084-.274.146-.388l.009-.017.009-.018.008-.019.008-.018c.08-.152.238-.298.393-.381.023-.013.029-.014.053-.026.466-.236.899-.145 1.429-.145-.001-.041-.03-.291-.042-.332-.016-.057-.024-.034-.047-.14l-.278-1.455c-.06-.202-.09-.576-.139-.741l-.185-.855c-.041-.125-.011-.186-.041-.305-.034-.131-.06-.094-.068-.279-.009-.192-.038-.132-.07-.277-.024-.109-.012-.201-.037-.31-.309-.072-3.993-.026-4.64-.026-.64 0-4.333-.045-4.64.026-.025.106-.015.232-.042.331-.044.156-.054.069-.065.282-.008.16-.053.173-.073.274-.027.143.008.158-.043.304l-.684 3.503c.492 0 .976-.085 1.411.136l.018.009.279.2c.112.112.21.253.263.404l.036.097c.088.187.061.578.019.673-.029.065-.001-.008-.028.052-.15.342-.249.514-.619.714l-.189.078c-.015.004-.067.007-.147.01h-4.963c-.113-.001-.214-.009-.325-.048l-.412-.255c-.094-.079-.159-.181-.221-.285-.207-.344-.204-.833 0-1.171l.01-.016.197-.257.488-.285c.072-.026.116-.049.211-.056.43-.031 1.074 0 1.519 0 0-.229.06-.317.083-.531l.047-.246c.024-.073.019-.007.03-.13l.222-1.085c.032-.102.006-.16.028-.265.026-.116.058-.097.069-.225.02-.233.066-.275.082-.504.01-.124.043-.133.067-.226.025-.096.002-.165.028-.266.027-.103.052-.113.062-.231.014-.151.001-.119.046-.248.044-.129.02-.114.04-.253.013-.091.04-.106.062-.231.019-.111.011-.16.04-.253.077-.248.089-.496.142-.738l.284-1.343c.03-.268.025-.146.073-.354.021-.091.01-.202.028-.265.044-.151.051-.04.061-.232.006-.111.009-.158.044-.241l.221-1.148c.061-.166.054-.145.054-.372-3.315 0-6.631-.002-9.946 0-.215 0-.507.012-.691-.056-.346-.128-.515-.241-.711-.569l-.135-.318c-.037-.157-.01-7.38-.01-7.428v-17.496c-.383 0-1.225.06-1.498-.048l-.077-.03c-.376-.141-.716-.52-.745-.866v-.488c.01-.087.03-.172.07-.258l.105-.188c.092-.134.164-.197.29-.297l.314-.165.019-.008c.037-.014.068-.021.098-.025h.237c6.276.022 12.589 0 18.867 0l19.119.001.023.004.041.012c.209.068.586.282.755.685l.029.077c.014.037.025.094.033.162v.46c-.009.074-.022.139-.042.184-.195.448-.391.591-.799.748-.241.092-1.133.04-1.479.04zm-32.96-.693h30.56v-23.467h-30.56zm11.253 4.007c-.001.046-.022.22-.034.278-.012.057-.059.177-.069.258-.026.204.063.15.45.15h6.133c2.013 0 1.715.118 1.608-.408-.012-.062-.03-.206-.034-.255-.026-.116-.042-.069-.054-.217-.007-.096-.006-.128-.032-.207-.023-.07-.041-.088-.047-.193-.007-.114.003-.119-.031-.21-.105-.283-.011-.215-.08-.4-.097-.26-.02-.159-.076-.403h-7.414c-.056.244.021.143-.076.403-.069.185.025.117-.08.4-.061.163.014.123-.078.403-.063.193.013.187-.086.401z"
              fill="url(#a)"/>
        <path d="m34.866 2.677v22.715h-29.73v-22.715zm-11.139 8.886c0-1.102-.895-1.997-1.997-1.997h-5.943c-1.102 0-1.997.895-1.997 1.997v6.937c0 1.102.895 1.997 1.997 1.997h5.943c1.102 0 1.997-.895 1.997-1.997zm-.994 0v6.937c0 .554-.449 1.003-1.003 1.003h-5.943c-.553 0-1.003-.449-1.003-1.003v-6.937c0-.553.45-1.003 1.003-1.003h5.943c.554 0 1.003.45 1.003 1.003zm-1.987 5.456c0-.274-.223-.497-.497-.497h-2.981c-.274 0-.497.223-.497.497s.223.497.497.497h2.981c.274 0 .497-.223.497-.497zm0-3.975c0-.274-.223-.497-.497-.497h-2.981c-.274 0-.497.223-.497.497s.223.497.497.497h2.981c.274 0 .497-.223.497-.497zm0 1.988c0-.275-.223-.497-.497-.497h-2.981c-.274 0-.497.222-.497.497 0 .274.223.496.497.496h2.981c.274 0 .497-.222.497-.496zm-4.521-6.459h7.104c.769 0 1.392.623 1.392 1.391v.507l.001.089v7.501c.601-.434.992-1.139.992-1.936v-6.161c0-1.317-1.067-2.385-2.385-2.385h-5.167c-.798 0-1.504.392-1.937.994z"
              fill="url(#b)"/>
    </g>
</svg>
